<svg width="14" height="9" viewBox="0 0 14 9" fill="none" xmlns="http://www.w3.org/2000/svg">
<path d="M2 6.07538C2.90129 4.3253 4.42489 1.49076 5.3691 2.08751C6.54936 2.83344 3.65236 5.12861 5.04721 6.07538C6.44206 7.02214 7.72961 1.22681 8.99571 2.0875C10.2618 2.9482 7.77253 5.21468 8.75966 6.07538C9.54936 6.76393 10.9056 4.34606 12 2.49079" stroke="#6500C3" stroke-width="3.67816" stroke-linecap="round"/>
<path d="M7.5445 4.06061C7.5445 4.39062 7.46327 4.68578 7.33589 4.89596C7.20768 5.10751 7.04078 5.22196 6.87017 5.22196C6.69955 5.22196 6.53265 5.10751 6.40444 4.89596C6.27706 4.68578 6.19584 4.39062 6.19584 4.06061C6.19584 3.7306 6.27706 3.43545 6.40444 3.22527C6.53265 3.01372 6.69955 2.89927 6.87017 2.89927C7.04078 2.89927 7.20768 3.01372 7.33589 3.22527C7.46327 3.43545 7.5445 3.7306 7.5445 4.06061Z" fill="white" stroke="#0F172A" stroke-width="0.149851"/>
<path d="M7.54449 4.06052C7.54449 4.2661 7.49276 4.44865 7.41307 4.57738C7.33267 4.70726 7.23138 4.77232 7.1324 4.77232C7.03342 4.77232 6.93214 4.70726 6.85174 4.57738C6.77205 4.44865 6.72031 4.2661 6.72031 4.06052C6.72031 3.85494 6.77205 3.6724 6.85174 3.54367C6.93214 3.41379 7.03342 3.34873 7.1324 3.34873C7.23138 3.34873 7.33267 3.41379 7.41307 3.54367C7.49276 3.6724 7.54449 3.85494 7.54449 4.06052Z" fill="#0F172A" stroke="#0F172A" stroke-width="0.149851"/>
<path d="M9.49256 4.06061C9.49256 4.39062 9.41133 4.68578 9.28395 4.89596C9.15574 5.10751 8.98884 5.22196 8.81823 5.22196C8.64761 5.22196 8.48071 5.10751 8.3525 4.89596C8.22512 4.68578 8.1439 4.39062 8.1439 4.06061C8.1439 3.7306 8.22512 3.43545 8.3525 3.22527C8.48071 3.01372 8.64761 2.89927 8.81823 2.89927C8.98884 2.89927 9.15574 3.01372 9.28395 3.22527C9.41133 3.43545 9.49256 3.7306 9.49256 4.06061Z" fill="white" stroke="#0F172A" stroke-width="0.149851"/>
<path d="M9.49255 4.06052C9.49255 4.2661 9.44082 4.44865 9.36113 4.57738C9.28072 4.70726 9.17944 4.77232 9.08046 4.77232C8.98148 4.77232 8.8802 4.70726 8.7998 4.57738C8.72011 4.44865 8.66837 4.2661 8.66837 4.06052C8.66837 3.85494 8.72011 3.6724 8.7998 3.54367C8.8802 3.41379 8.98148 3.34873 9.08046 3.34873C9.17944 3.34873 9.28072 3.41379 9.36113 3.54367C9.44082 3.6724 9.49255 3.85494 9.49255 4.06052Z" fill="#0F172A" stroke="#0F172A" stroke-width="0.149851"/>
</svg>
